<?xml version="1.0" encoding="UTF-8"?>
<svg id="Layer_1" xmlns="http://www.w3.org/2000/svg" version="1.1" viewBox="145.24 240.22 305.49 371.89">
  <!-- Generator: Adobe Illustrator 30.8.1, SVG Export Plug-In . SVG Version: 2.1.4 Build 1)  -->
  <path d="M209.08,488.12c-.27,30.11,22.01,57.87,52.93,59.42,24.32,1.22,47.6,1.12,72.1.02,28.14-1.27,50.74-25.93,52.41-53.58l.55-40.96-57.06.02-.02,8.96c-1.82,16.87-15.07,29.27-31.67,29.43-15.62.15-31.98-12.01-31.99-29.54v-71.7c-.01-17.08,15.85-29.26,31.07-29.51,16.16-.27,30.81,11.57,32.23,28.53l.36-.23,62.96.46c31.35,1.64,56.47,27.35,57.48,58.73l.05,45.57c-1.8,62.96-51.02,113.65-113.58,118.37l-80.65-.17c-63.92-6.56-111.56-59.86-111.01-123.95l63.82.14Z"/>
  <path d="M263.21,304.33c-29.08,1.3-53.57,25.99-53.71,54.9l-.6,93.91c-34.04.38-62.53-25.77-63.52-60.33l-.1-34.45c2.51-61.71,48.71-111.31,110.24-118.14h84.96c63.98,6.82,111.07,60.87,110.25,123.86l-63.79-.06c.21-30.97-22.13-56.63-52.93-60.07l-70.82.37Z"/>
</svg>